<svg width="151" height="106" fill="none" xmlns="http://www.w3.org/2000/svg"><path d="M118.396 63.762c0 3.124-4.434 5.713-5.105 8.637-.692 3.019 2.17 7.275.86 10-1.342 2.767-6.457 3.176-8.354 5.555-1.908 2.39-1.174 7.474-3.564 9.381-2.38 1.898-7.17.063-9.937 1.395-2.725 1.31-4.266 6.215-7.285 6.907-2.924.66-6.425-3.071-9.559-3.071-3.134 0-6.635 3.731-9.56 3.071-3.018-.692-4.559-5.587-7.284-6.907-2.767-1.342-7.558.503-9.937-1.395-2.39-1.907-1.656-6.99-3.564-9.38-1.897-2.38-7.023-2.789-8.354-5.556-1.31-2.725 1.541-6.981.86-10-.66-2.924-5.105-5.513-5.105-8.637 0-3.123 4.434-5.712 5.105-8.637.691-3.019-2.17-7.274-.86-10 1.342-2.767 6.457-3.175 8.354-5.555 1.908-2.39 1.174-7.473 3.564-9.381 2.38-1.897 7.17-.063 9.937-1.394 2.725-1.31 4.266-6.216 7.285-6.908 2.924-.66 6.425 3.072 9.559 3.072 3.134 0 6.635-3.732 9.56-3.072 3.018.692 4.559 5.587 7.284 6.908 2.767 1.342 7.558-.503 9.937 1.394 2.39 1.908 1.656 6.991 3.564 9.381 1.897 2.38 7.023 2.788 8.354 5.556 1.31 2.725-1.541 6.98-.86 10 .671 2.924 5.105 5.502 5.105 8.636Z" fill="#64C883"/><path d="M71.315 76.715a3.694 3.694 0 0 1-2.736-1.216L59.397 65.3a2.521 2.521 0 0 1 .189-3.564 2.521 2.521 0 0 1 3.563.189l8.124 9.035 16.393-19.213a2.535 2.535 0 0 1 3.564-.283 2.535 2.535 0 0 1 .283 3.564l-17.41 20.408a3.663 3.663 0 0 1-2.746 1.29c-.01-.011-.021-.011-.042-.011Z" fill="#fff"/><path d="M110.385 8.292c6.426-.874 7.134-1.583 8.007-8.007.875 6.424 1.584 7.133 8.008 8.007-6.424.874-7.133 1.582-8.008 8.008-.873-6.426-1.581-7.134-8.007-8.008ZM120.686 23.46c12.163-1.652 13.503-2.994 15.156-15.155 1.655 12.16 2.997 13.503 15.158 15.156-12.161 1.655-13.503 2.995-15.158 15.158-1.653-12.163-2.993-13.503-15.156-15.158ZM30.314 23.176c-8.72 1.185-9.682 2.147-10.867 10.866-1.187-8.719-2.149-9.68-10.868-10.866 8.72-1.187 9.681-2.148 10.868-10.868 1.185 8.72 2.146 9.681 10.867 10.868ZM5.72 34.042c.623 4.59 1.13 5.096 5.719 5.72-4.59.624-5.096 1.13-5.72 5.72-.624-4.59-1.13-5.096-5.72-5.72 4.59-.624 5.096-1.13 5.72-5.72Z" fill="#64C883"/></svg>