<svg width="560" height="951" viewBox="0 0 560 951" fill="none" xmlns="http://www.w3.org/2000/svg">
<g opacity="0.2" clip-path="url(#clip0_174_37)">
<path d="M6.01132 827.836C9.48082 685.969 11.0139 497.442 3.9942 274.363C-0.282145 138.569 -7.05975 9.49261 26.9897 0.844597C71.972 -10.6191 97.509 211.092 292.446 342.341C406.899 419.368 484.922 404.325 531.276 488.754C574.362 567.229 568.876 686.934 510.701 732.507C452.769 777.879 369.178 729.048 327.141 782.384C297.933 819.43 319.314 867.014 286.798 885.356C261.987 899.353 228.18 883.707 207.322 874.093C160.444 852.453 135.391 815.206 124.619 796.462" stroke="#296431" stroke-width="2" stroke-miterlimit="10"/>
<path d="M6.01111 827.836C16.1372 687.899 18.9208 509.107 11.175 300.549C10.9329 293.63 10.6102 286.672 10.2875 279.713C4.55879 145.93 -5.60765 21.7206 26.7474 9.69386C59.7075 -2.53403 89.3999 114.556 182.915 230.238C212.446 266.56 245.729 304.491 289.581 336.951C304.387 347.932 318.709 357.223 332.95 364.946C421.624 413.134 487.867 406.939 529.743 478.778C559.476 529.862 565.648 602.626 550.076 663.202C542.41 693.088 528.573 720.078 506.707 737.696C450.872 782.746 369.017 736.328 327.302 788.297C298.578 824.256 318.507 870.473 286.314 887.849C261.14 901.405 227.413 885.396 206.636 875.461C200.585 872.524 194.897 869.387 189.612 866.089C153.666 843.644 133.777 812.913 124.619 796.422" stroke="#2A6A39" stroke-width="2" stroke-miterlimit="10"/>
<path d="M6.01146 827.836C22.9151 685.405 26.9494 508.865 17.7109 305.738C17.3882 298.859 16.9444 291.981 16.5813 285.063C9.11787 153.331 -3.99359 33.828 26.546 18.6236C58.2555 2.81582 94.1204 110.212 185.86 222.234C215.149 258.033 245.205 297.773 286.758 331.561C300.837 343.025 314.594 352.879 328.795 360.763C415.774 409.152 484.599 398.05 528.21 468.843C559.597 519.806 564.438 596.673 547.615 663.645C539.869 694.456 526.153 723.497 502.713 742.925C448.896 787.492 368.735 743.528 327.504 794.25C299.143 829.083 317.741 873.972 285.87 890.383C260.333 903.536 226.647 887.125 205.991 876.868C199.899 873.811 194.251 870.594 189.007 867.255C153.061 844.328 133.576 813.114 124.62 796.502" stroke="#2A7041" stroke-width="2" stroke-miterlimit="10"/>
<path d="M6.01161 827.836C29.6929 682.871 34.8971 508.664 24.2466 310.886C23.8835 304.048 23.3187 297.25 22.8346 290.412C13.7575 160.732 -2.3797 45.8143 26.2638 27.5127C56.763 8.00436 99.002 105.667 188.684 214.229C217.812 249.465 244.559 291.056 283.813 326.211C297.166 338.157 310.359 348.535 324.559 356.62C409.804 405.21 481.251 389.201 526.597 458.908C559.758 509.75 563.228 590.76 545.195 664.087C537.408 695.783 523.773 726.956 498.72 748.154C446.798 792.118 368.533 750.808 327.666 800.203C299.748 833.95 316.894 877.432 285.386 892.918C259.446 905.628 225.84 888.855 205.306 878.236C199.173 875.058 193.566 871.72 188.402 868.341C152.497 844.891 133.374 813.195 124.62 796.462" stroke="#2B7649" stroke-width="2" stroke-miterlimit="10"/>
<path d="M6.01132 827.836C36.4702 680.337 42.804 508.423 30.7818 316.035C30.3784 309.237 29.6926 302.48 29.1278 295.722C18.4773 168.093 -0.725939 57.6402 26.0618 36.362C55.4314 13.0325 103.924 101.081 191.629 206.145C220.595 240.857 244.075 284.258 280.989 320.741C293.616 333.21 306.203 344.111 320.404 352.356C403.954 401.107 477.983 380.231 525.063 448.892C559.92 499.735 561.977 584.807 542.774 664.53C534.907 697.151 521.392 730.375 494.766 753.343C444.66 796.583 368.331 758.049 327.907 806.075C300.434 838.697 316.127 880.81 284.983 895.331C258.639 907.639 225.154 890.464 204.7 879.523C198.568 876.225 192.92 872.766 187.837 869.387C151.972 845.414 133.213 813.275 124.66 796.422" stroke="#2B7C51" stroke-width="2" stroke-miterlimit="10"/>
<path d="M6.01101 827.836C43.2475 677.844 50.6303 508.182 37.3171 321.224C36.833 314.466 36.0665 307.789 35.421 301.112C23.1971 175.535 0.88748 69.3854 25.8194 45.2916C54.0191 18.0202 108.845 96.5764 194.493 198.18C223.298 232.25 243.469 277.541 278.084 315.351C289.944 328.303 302.007 339.726 316.208 348.173C398.063 397.045 474.796 371.302 523.53 438.917C560.121 489.679 560.726 578.854 540.353 664.972C532.405 698.478 518.971 733.754 490.771 758.572C442.441 801.048 368.129 765.329 328.068 812.029C301.039 843.564 315.239 884.229 284.498 897.865C257.751 909.731 224.347 892.194 204.014 880.931C197.842 877.512 192.234 873.972 187.231 870.513C151.407 845.977 133.051 813.436 124.7 796.422" stroke="#2C8259" stroke-width="2" stroke-miterlimit="10"/>
<path d="M6.01176 827.836C50.0259 675.309 58.4575 507.98 43.8534 326.372C43.329 319.695 42.4414 313.058 41.7153 306.421C27.918 182.895 2.46161 80.9694 25.6184 54.1002C52.6079 22.726 113.808 91.9503 197.439 190.055C226.082 223.641 242.946 270.823 275.26 309.961C286.395 323.436 297.893 335.342 312.053 343.99C392.214 392.982 471.569 362.372 521.957 428.941C560.323 479.623 559.476 572.901 537.893 665.374C529.864 699.765 516.551 737.132 486.738 763.76C440.142 805.391 367.888 772.569 328.19 817.941C301.604 848.39 314.312 887.608 283.934 900.359C256.743 911.782 223.5 893.842 203.208 882.298C197.035 878.759 191.428 875.098 186.466 871.639C150.681 846.58 132.688 813.597 124.539 796.462" stroke="#2D8861" stroke-width="2" stroke-miterlimit="10"/>
<path d="M6.01124 827.836C56.803 672.775 66.2029 507.739 50.3885 331.521C49.7833 324.884 48.8151 318.287 47.9679 311.771C32.6376 190.297 3.95375 92.5138 25.3355 62.9899C51.0743 27.4727 118.729 87.3652 200.262 182.051C228.744 215.114 242.3 264.147 272.315 304.571C282.723 318.569 293.656 330.958 307.776 339.807C386.284 388.879 468.341 353.442 520.383 418.966C560.525 469.527 558.144 566.948 535.472 665.817C527.363 701.133 514.13 740.511 482.784 768.949C437.842 809.736 367.685 779.81 328.432 823.854C302.249 853.177 313.505 890.947 283.53 902.853C255.895 913.794 222.814 895.532 202.602 883.626C196.389 879.966 190.822 876.225 185.9 872.685C150.156 847.063 132.527 813.678 124.579 796.382" stroke="#2D8E68" stroke-width="2" stroke-miterlimit="10"/>
<path d="M6.01152 827.836C63.5809 670.281 73.9086 507.497 56.9243 336.709C56.2788 330.112 55.1895 323.596 54.2616 317.12C37.358 197.697 5.36604 104.017 25.0937 71.8787C49.4608 32.1782 123.692 82.7792 203.167 174.006C231.488 206.506 241.735 257.469 269.451 299.181C279.093 313.701 289.461 326.573 303.621 335.623C380.474 384.776 465.235 344.472 518.851 409.031C560.767 459.511 556.894 561.034 533.051 666.259C524.862 702.46 511.71 743.89 478.79 774.178C435.502 814.039 367.484 787.09 328.593 829.807C302.895 858.043 312.577 894.325 283.046 905.386C254.968 915.885 222.007 897.221 201.917 885.033C195.704 881.252 190.137 877.391 185.295 873.851C149.592 847.666 132.325 813.838 124.579 796.462" stroke="#2E9470" stroke-width="2" stroke-miterlimit="10"/>
<path d="M6.01176 827.836C70.3587 667.748 81.574 507.256 63.5004 341.858C62.7742 335.302 61.6043 328.866 60.5957 322.47C42.1993 205.099 6.8186 115.481 24.9326 80.7686C47.8877 36.8045 128.775 78.1943 206.153 166.002C234.312 197.939 241.211 250.833 266.667 293.831C275.583 308.875 285.386 322.269 299.506 331.481C374.706 380.674 462.169 335.543 517.358 399.096C561.09 449.456 555.643 555.082 530.671 666.742C522.361 703.828 509.33 747.269 474.837 779.448C433.162 818.344 367.323 794.411 328.836 835.8C303.581 862.951 311.73 897.744 282.643 907.961C254.121 917.977 221.322 898.991 201.312 886.482C195.059 882.58 189.532 878.598 184.731 875.018C149.068 848.27 132.204 814.04 124.66 796.502" stroke="#2F9A78" stroke-width="2" stroke-miterlimit="10"/>
<path d="M6.01164 827.836C77.1362 665.254 89.1584 506.975 70.0358 347.007C69.2693 340.491 67.9783 334.135 66.8487 327.78C46.9193 212.46 8.06914 126.905 24.6501 89.6178C46.0722 41.39 133.697 73.5687 208.977 157.917C236.975 189.291 240.525 244.156 263.722 288.361C271.871 303.928 281.15 317.805 295.27 327.217C368.856 376.45 459.022 326.493 515.744 389.08C561.291 439.319 554.272 549.089 528.17 667.144C519.779 705.115 506.829 750.567 470.802 784.637C430.701 822.527 367.121 801.651 328.957 841.673C304.146 867.738 310.762 901.003 282.119 910.375C253.112 919.908 220.515 900.56 200.585 887.769C194.292 883.747 188.805 879.684 184.045 876.064C148.462 848.752 131.922 814.12 124.579 796.462" stroke="#2FA080" stroke-width="2" stroke-miterlimit="10"/>
<path d="M6.01125 827.836C83.9134 662.719 96.7021 506.733 76.571 352.195C75.7238 345.719 74.3521 339.444 73.1418 333.169C51.7198 219.901 9.35972 138.408 24.448 98.5468C44.2967 46.0554 138.739 68.9826 211.922 149.952C239.758 180.763 239.96 237.559 260.898 283.051C268.321 299.181 277.035 313.46 291.115 323.114C363.006 372.307 455.915 317.563 514.211 379.145C561.614 429.223 552.98 543.175 525.749 667.586C517.237 706.442 504.367 753.905 466.808 789.825C428.281 826.71 366.919 808.891 329.118 847.585C304.751 872.564 309.834 904.26 281.634 912.868C252.184 921.878 219.708 902.249 199.899 889.096C193.606 884.913 188.079 880.77 183.439 877.109C147.897 849.235 131.72 814.2 124.579 796.381" stroke="#30A688" stroke-width="2" stroke-miterlimit="10"/>
<path d="M6.01124 827.836C90.691 660.186 104.206 506.492 83.1065 357.344C82.1787 350.909 80.7263 344.674 79.4354 338.479C56.5206 227.262 10.57 149.832 24.2059 107.396C42.4006 50.6414 143.782 64.3173 214.786 141.868C242.501 172.116 239.314 230.882 257.993 277.622C264.65 294.274 272.839 309.036 286.879 318.891C357.196 368.124 452.849 308.553 512.637 369.17C561.896 419.127 551.649 537.183 523.328 668.029C514.735 707.81 501.906 757.204 462.854 795.054C425.86 830.893 366.758 816.172 329.36 853.539C305.436 877.432 308.946 907.559 281.231 915.403C251.296 923.89 219.022 903.939 199.294 890.504C192.96 886.2 187.474 881.937 182.875 878.277C147.373 849.839 131.558 814.402 124.619 796.462" stroke="#30AC90" stroke-width="2" stroke-miterlimit="10"/>
<path d="M6.01131 827.836C97.4687 657.691 111.629 506.251 89.6422 362.492C88.6739 356.097 87.1006 349.943 85.7289 343.829C61.3215 234.663 11.7804 161.295 23.9639 116.286C40.4642 55.307 148.825 59.6913 217.691 133.863C245.245 163.548 238.669 224.285 255.129 272.231C261.019 289.447 268.684 304.651 282.723 314.707C351.427 363.941 449.783 299.503 511.105 359.234C562.219 408.991 550.318 531.229 520.908 668.471C512.194 709.137 499.405 760.502 458.86 800.283C423.399 835.076 366.596 823.452 329.521 859.492C306.082 882.298 307.978 910.817 280.746 917.936C250.288 925.9 218.255 905.628 198.608 891.912C192.274 887.487 186.788 883.143 182.269 879.402C146.848 850.401 131.357 814.562 124.66 796.462" stroke="#31B198" stroke-width="2" stroke-miterlimit="10"/>
<path d="M6.01101 827.836C104.246 655.157 119.012 506.009 96.1775 367.681C95.1285 361.366 93.4745 355.252 91.9818 349.178C66.122 242.064 12.9096 172.799 23.7215 125.175C38.4871 59.9727 153.868 55.0252 220.555 125.818C247.988 154.94 237.983 217.648 252.224 266.841C257.347 284.58 264.488 300.267 278.487 310.524C345.618 359.717 446.717 290.493 509.531 349.259C562.542 398.854 548.946 525.276 518.487 668.914C509.652 710.464 496.904 763.76 454.866 805.472C420.898 839.179 366.394 830.732 329.723 865.404C306.727 887.125 307.05 914.034 280.303 920.43C249.36 927.831 217.529 907.277 197.963 893.279C191.588 888.734 186.142 884.269 181.664 880.528C146.324 850.924 131.195 814.683 124.66 796.462" stroke="#32B7A0" stroke-width="2" stroke-miterlimit="10"/>
<path d="M6.01145 827.836C111.024 652.623 126.354 505.808 102.713 372.83C101.584 366.555 99.8491 360.522 98.2757 354.528C70.9635 249.425 14.08 184.343 23.4799 134.064C36.4703 64.6388 158.951 50.3595 223.46 117.814C250.772 146.373 237.338 211.052 249.36 261.492C253.717 279.753 260.333 295.883 274.332 306.381C339.889 355.534 443.732 281.483 507.998 339.364C562.865 388.799 547.615 519.404 516.026 669.396C507.111 711.832 494.322 767.059 450.873 810.741C418.397 843.362 366.233 838.053 329.884 871.398C307.373 892.032 306.082 917.293 279.819 923.004C248.392 929.802 216.763 909.047 197.237 894.687C190.863 890.021 185.416 885.436 180.979 881.655C145.679 851.487 130.913 814.844 124.579 796.502" stroke="#32BDA8" stroke-width="2" stroke-miterlimit="10"/>
<path d="M6.01114 827.836C117.801 650.13 133.616 505.567 109.249 377.979C108.038 371.744 106.223 365.751 104.569 359.838C75.8447 256.786 15.2093 195.807 23.2779 142.914C34.4529 69.305 164.075 45.6537 226.364 109.729C253.555 137.685 236.652 204.375 246.495 256.022C250.086 274.846 256.178 291.418 270.136 302.118C334.12 351.19 440.706 272.312 506.425 329.309C563.227 378.542 546.243 513.37 513.606 669.799C504.569 713.12 491.78 770.237 446.878 815.93C415.895 847.465 366.072 845.334 330.045 877.311C308.018 896.86 305.113 920.471 279.334 925.499C247.383 931.693 215.956 910.696 196.551 896.055C190.176 891.228 184.73 886.562 180.373 882.781C145.154 852.011 130.711 815.005 124.579 796.502" stroke="#33C3B0" stroke-width="2" stroke-miterlimit="10"/>
<path d="M6.01112 827.836C124.579 647.596 140.797 505.366 115.784 383.167C114.534 376.973 112.597 371.06 110.862 365.228C80.7262 264.227 16.3389 207.392 23.0358 151.803C32.3954 74.011 169.158 40.9474 229.269 101.685C256.339 129.077 235.966 197.738 243.631 250.632C246.455 269.979 252.022 286.993 265.981 297.934C328.391 346.926 437.721 263.222 504.891 319.333C563.55 368.365 544.871 507.377 511.185 670.201C502.027 714.447 489.198 773.374 442.925 821.119C413.434 851.528 365.951 852.614 330.287 883.183C308.744 901.686 304.186 923.608 278.891 927.912C246.414 933.463 215.229 912.265 195.905 897.342C189.491 892.395 184.085 887.648 179.768 883.787C144.629 852.413 130.509 815.045 124.619 796.422" stroke="#33C9B8" stroke-width="2" stroke-miterlimit="10"/>
<path d="M6.01157 827.836C131.357 645.061 147.938 505.165 122.32 388.316C120.989 382.162 118.972 376.329 117.116 370.537C85.5678 271.548 17.4286 218.936 22.7942 160.652C30.3384 78.7171 174.322 36.2011 232.174 93.6802C259.123 120.469 235.28 191.101 240.767 245.282C242.784 265.192 247.908 282.649 261.786 293.791C322.623 342.703 434.695 254.171 503.359 309.438C563.914 358.189 543.5 501.424 508.765 670.643C499.486 715.774 486.576 776.551 438.931 826.308C410.893 855.63 365.79 859.894 330.449 889.096C309.39 906.513 303.218 926.745 278.407 930.406C245.447 935.313 214.463 913.914 195.22 898.71C188.805 893.642 183.399 888.774 179.163 884.873C144.105 852.935 130.348 815.166 124.62 796.382" stroke="#34CFC0" stroke-width="2" stroke-miterlimit="10"/>
<path d="M6.01127 827.836C138.134 642.567 155.038 504.963 128.855 393.505C127.443 387.391 125.346 381.598 123.409 375.927C90.449 278.989 18.5176 230.56 22.5519 169.581C28.2402 83.5035 179.445 31.4948 235.038 85.6756C261.906 111.861 234.554 184.504 237.862 239.892C239.113 260.325 243.712 278.225 257.549 289.608C316.853 338.399 431.629 245.04 501.745 299.463C564.236 347.972 542.088 495.471 506.263 671.126C496.863 717.141 483.833 779.689 434.856 831.577C408.27 859.773 365.588 867.255 330.57 895.089C309.995 911.46 302.209 929.923 277.882 932.98C244.398 937.163 213.656 915.643 194.493 900.117C188.038 894.888 182.673 889.941 178.477 886.039C143.5 853.498 130.066 815.326 124.539 796.462" stroke="#35D5C8" stroke-width="2" stroke-miterlimit="10"/>
<path d="M6.01125 827.836C144.912 640.033 162.058 504.803 135.391 398.653C133.858 392.62 131.72 386.868 129.703 381.237C95.3708 286.31 19.6471 242.104 22.3098 178.431C26.1424 88.2097 184.609 26.7083 237.943 77.5908C264.73 103.133 233.828 177.827 234.998 234.462C235.441 255.418 239.556 273.76 253.394 285.384C311.205 334.055 428.684 235.87 500.212 289.487C564.64 337.755 540.716 489.478 503.883 671.528C494.403 718.429 481.17 782.746 430.943 836.766C405.769 863.836 365.547 874.576 330.812 901.002C310.721 916.327 301.321 933.02 277.479 935.474C243.47 938.933 212.97 917.293 193.888 901.485C187.433 896.135 182.068 891.067 177.912 887.125C143.016 853.981 129.904 815.447 124.579 796.422" stroke="#35DBCF" stroke-width="2" stroke-miterlimit="10"/>
<path d="M6.01139 827.836C151.69 637.499 168.997 504.682 141.967 403.802C140.353 397.809 138.134 392.137 135.996 386.586C100.293 293.67 20.7365 253.688 22.1082 187.32C24.0447 92.9962 189.854 21.9216 240.847 69.5862C267.554 94.5247 233.102 171.19 232.133 229.112C231.77 250.591 235.442 269.375 249.198 281.241C305.477 329.791 425.699 226.779 498.679 279.552C565.043 327.538 539.345 483.565 501.463 672.011C491.861 719.796 478.427 785.843 426.949 841.995C403.228 867.899 365.386 881.896 330.973 906.955C311.367 921.194 300.313 936.157 276.995 938.008C242.501 940.703 212.204 918.982 193.202 902.893C186.707 897.422 181.382 892.274 177.307 888.292C142.532 854.544 129.703 815.648 124.62 796.502" stroke="#36E1D7" stroke-width="2" stroke-miterlimit="10"/>
<path d="M6.01162 827.836C158.467 635.006 175.936 504.561 148.503 408.991C146.808 403.038 144.509 397.447 142.29 391.936C105.255 300.991 21.826 265.313 21.8664 196.209C21.9471 97.783 195.018 17.1353 243.752 61.5418C270.379 85.8367 232.376 164.514 229.31 223.682C228.18 245.684 231.367 264.911 245.084 277.018C299.829 325.407 422.714 217.568 497.146 269.537C565.447 317.241 537.65 477.451 499.042 672.413C489.239 721.084 475.603 788.779 422.956 847.184C400.646 871.961 365.306 889.257 331.175 912.868C312.093 926.102 299.426 939.255 276.551 940.502C241.533 942.433 211.518 920.632 192.557 904.261C186.062 898.629 180.737 893.4 176.702 889.378C142.008 854.987 129.542 815.769 124.62 796.462" stroke="#37E7DF" stroke-width="2" stroke-miterlimit="10"/>
<path d="M6.01103 827.836C165.245 632.471 182.753 504.481 155.038 414.139C153.222 408.226 150.923 402.675 148.583 397.285C110.217 308.352 22.9147 276.937 21.6641 205.098C19.8083 102.569 200.262 12.2678 246.616 53.4967C273.202 77.1078 231.609 157.836 226.404 218.292C224.468 240.857 227.211 260.486 240.847 272.834C294.18 321.102 419.728 208.437 495.572 259.601C565.809 306.984 536.319 471.538 496.581 672.855C486.656 722.41 472.657 791.715 418.961 852.412C398.063 876.064 365.184 896.618 331.336 918.781C312.738 930.968 298.457 942.311 276.066 942.955C240.565 944.041 210.751 922.24 191.871 905.587C185.376 899.835 180.05 894.486 176.056 890.464C141.482 855.469 129.299 815.889 124.579 796.462" stroke="#37EDE7" stroke-width="2" stroke-miterlimit="10"/>
<path d="M6.01124 827.836C172.022 629.937 189.571 504.441 161.574 419.288C159.637 413.455 157.297 407.945 154.877 402.595C115.179 315.632 24.0042 288.522 21.4222 213.948C17.7107 107.356 205.507 7.44123 249.561 45.4523C276.107 68.3796 230.923 151.159 223.581 212.902C220.837 235.99 223.096 256.062 236.692 268.651C288.533 316.759 416.783 199.226 494.039 249.626C566.213 296.687 535.028 465.585 494.201 673.298C484.196 723.738 469.713 794.571 415.008 857.642C395.482 880.126 365.103 904.019 331.579 924.734C313.505 935.916 297.569 945.369 275.663 945.489C239.677 945.69 210.106 923.889 191.266 906.955C184.771 901.043 179.445 895.612 175.532 891.55C141.039 855.952 129.178 815.97 124.66 796.422" stroke="#38F3EF" stroke-width="2" stroke-miterlimit="10"/>
<path d="M6.01139 827.836C178.8 627.444 196.309 504.441 168.109 424.477C166.092 418.685 163.672 413.214 161.13 407.985C120.263 322.873 25.0533 300.147 21.1803 222.837C15.5727 112.183 210.752 2.53422 252.426 37.4078C278.972 59.6513 230.036 144.442 220.676 207.472C217.086 231.043 218.982 251.557 232.497 264.428C282.885 312.334 413.798 190.015 492.507 239.651C566.617 286.39 533.697 459.592 491.74 673.741C481.654 725.106 466.566 797.347 411.014 862.831C392.9 884.189 365.023 911.42 331.74 930.647C314.151 940.824 296.642 948.426 275.179 947.983C238.709 947.259 209.299 925.539 190.58 908.323C184.045 902.29 178.76 896.739 174.887 892.676C140.595 856.395 128.936 816.131 124.66 796.462" stroke="#38F9F7" stroke-width="2" stroke-miterlimit="10"/>
<path d="M6.01101 827.836C185.577 624.909 203.005 504.481 174.644 429.625C137.811 332.325 26.4649 316.799 20.9379 231.726C13.4745 117.01 216.036 -2.37323 255.33 29.4032C291.841 58.9271 178.961 212.178 228.3 260.285C277.277 308.03 410.771 180.844 490.933 229.715C567.02 276.133 532.365 453.679 489.319 674.183C479.112 726.433 463.338 800.042 407.02 868.059C381.644 898.71 336.419 953.333 274.695 950.517C224.831 948.265 188.966 909.65 174.241 893.802C139.99 856.958 128.694 816.292 124.619 796.462" stroke="#39FFFF" stroke-width="2" stroke-miterlimit="10"/>
</g>
<defs>
<clipPath id="clip0_174_37">
<rect width="951" height="560" fill="white" transform="translate(560) rotate(90)"/>
</clipPath>
</defs>
</svg>
